#!OML:ASF X:\2005_08_12_Meinard\c3d\meinard.ASF
:FULLY-SPECIFIED
:DEGREES
328
root 0.307269 17.2033 -4.50572 -16.6649 -70.1978 6.06873
lowerback 38.7898 -3.99979 -3.84075
upperback 3.79272 -7.5725 -2.27844
thorax -14.6755 -3.33665 2.98421
lowerneck 0.50193 -12.0427 -5.63662
upperneck -16.3846 -15.4065 13.8474
head -3.3755 -8.30031 5.42301
rclavicle -3.67752e-014 3.18055e-015
rhumerus 39.595 37.4375 56.5836
rradius 31.0923
rwrist -81.3353
rhand -13.6461 -1.43905
rfingers 7.12502
rthumb 12.4703 -31.047
lclavicle -3.67752e-014 3.18055e-015
lhumerus 42.8158 -34.5465 58.6127
lradius 112.869
lwrist 20.4179
lhand -7.01405 -16.9133
lfingers 7.12502
lthumb 18.8573 12.1927
rfemur -6.29487 -18.3675 18.0528
rtibia 38.7635
rfoot -15.0008 -1.38562
rtoes -2.85938
lfemur 14.6574 -5.78888 -9.6437
ltibia 21.3209
lfoot -7.69584 21.7053
ltoes -31.5276
329
root 0.29723 17.1958 -4.51586 -16.7373 -70.113 6.1506
lowerback 38.806 -4.00261 -3.85863
upperback 3.81489 -7.58284 -2.27139
thorax -14.6514 -3.34198 3.00495
lowerneck 0.71208 -12.1303 -5.56531
upperneck -16.6622 -15.5131 13.9159
head -3.48294 -8.37354 5.46337
rclavicle 6.16232e-014 -5.56597e-015
rhumerus 39.4353 37.1691 56.3181
rradius 31.2552
rwrist -81.7604
rhand -15.616 -2.37196
rfingers 7.12502
rthumb 10.5706 -32.0861
lclavicle 6.16232e-014 -5.56597e-015
lhumerus 42.7825 -34.493 58.7748
lradius 112.804
lwrist 20.9218
lhand -7.49304 -16.5871
lfingers 7.12502
lthumb 18.3966 12.563
rfemur -6.35789 -18.4607 18.062
rtibia 38.9344
rfoot -15.1006 -1.47896
rtoes -3.1641
lfemur 14.6891 -5.84789 -9.65442
ltibia 21.2682
lfoot -7.71342 21.682
ltoes -31.6746
330
root 0.287717 17.1851 -4.52613 -16.7392 -70.0429 6.1339
lowerback 38.8279 -4.00478 -3.86545
upperback 3.85202 -7.58521 -2.24758
thorax -14.6109 -3.34565 3.03401
lowerneck 0.859428 -12.2202 -5.46047
upperneck -16.888 -15.6285 13.9143
head -3.57349 -8.44598 5.47144
rclavicle -5.76476e-014 3.33958e-014
rhumerus 39.3972 36.9355 56.1623
rradius 31.3784
rwrist -82.2987
rhand -17.9855 -3.46426
rfingers 7.12502
rthumb 8.28436 -33.2818
lclavicle -5.76476e-014 3.33958e-014
lhumerus 42.7473 -34.4379 58.9115
lradius 112.793
lwrist 21.6003
lhand -7.9591 -16.3601
lfingers 7.12502
lthumb 17.9482 12.8317
rfemur -6.37688 -18.5072 18.108
rtibia 39.0743
rfoot -15.2179 -1.57017
rtoes -3.49685
lfemur 14.7295 -5.89175 -9.62049
ltibia 21.2559
lfoot -7.73826 21.6814
ltoes -31.728
331
root 0.2783 17.1754 -4.5363 -16.7581 -69.9577 6.16802
lowerback 38.8302 -4.0045 -3.89549
upperback 3.87479 -7.58976 -2.20605
thorax -14.5746 -3.34782 3.09469
lowerneck 1.03735 -12.3027 -5.40781
upperneck -17.1364 -15.7324 13.9462
head -3.66948 -8.513 5.5007
rclavicle 1.11319e-014 1.43125e-014
rhumerus 39.3396 36.6653 55.9672
rradius 31.4856
rwrist -82.7587
rhand -20.4925 -4.55917
rfingers 7.12502
rthumb 5.86437 -34.458
lclavicle 1.11319e-014 1.43125e-014
lhumerus 42.6297 -34.4231 59.1071
lradius 112.804
lwrist 22.2308
lhand -8.37169 -16.2111
lfingers 7.12502
lthumb 17.5512 13.0167
rfemur -6.42425 -18.5537 18.137
rtibia 39.1939
rfoot -15.3238 -1.62966
rtoes -3.84031
lfemur 14.7217 -5.95675 -9.61884
ltibia 21.2656
lfoot -7.78819 21.6814
ltoes -31.8483
332
root 0.269802 17.1669 -4.5471 -16.8606 -69.8751 6.27213
lowerback 38.8674 -3.99685 -3.93793
upperback 3.89178 -7.59837 -2.19696
thorax -14.5611 -3.35038 3.13094
lowerneck 1.20408 -12.3876 -5.331
upperneck -17.3481 -15.8361 14.0025
head -3.75239 -8.58166 5.53093
rclavicle -6.12257e-014 2.8625e-014
rhumerus 39.4244 36.5475 55.9395
rradius 31.561
rwrist -83.3714
rhand -22.9803 -5.63783
rfingers 7.12502
rthumb 3.46209 -35.5895
lclavicle -6.12257e-014 2.8625e-014
lhumerus 42.5226 -34.4121 59.254
lradius 112.83
lwrist 22.9621
lhand -8.69308 -16.1468
lfingers 7.12502
lthumb 17.2419 13.1083
rfemur -6.44431 -18.5845 18.1335
rtibia 39.2995
rfoot -15.4486 -1.67586
rtoes -4.25187
lfemur 14.7221 -6.01465 -9.6451
ltibia 21.2867
lfoot -7.85574 21.7451
ltoes -31.8655
333
root 0.26127 17.1583 -4.55741 -16.9117 -69.784 6.30694
lowerback 38.9078 -3.9945 -3.9577
upperback 3.91292 -7.60228 -2.17705
thorax -14.5452 -3.35215 3.16519
lowerneck 1.44128 -12.4725 -5.22456
upperneck -17.6257 -15.9402 14.0293
head -3.8725 -8.65319 5.55896
rclavicle 2.38542e-015 -3.97569e-014
rhumerus 39.579 36.4749 56.0256
rradius 31.6342
rwrist -84.0411
rhand -25.311 -6.66987
rfingers 7.12502
rthumb 1.21118 -36.6462
lclavicle 2.38542e-015 -3.97569e-014
lhumerus 42.429 -34.4063 59.4074
lradius 112.828
lwrist 23.5859
lhand -8.97146 -16.1053
lfingers 7.12502
lthumb 16.9739 13.173
rfemur -6.44337 -18.5662 18.1478
rtibia 39.3982
rfoot -15.5814 -1.75361
rtoes -4.44484
lfemur 14.744 -6.08257 -9.64915
ltibia 21.2831
lfoot -7.91476 21.8021
ltoes -31.8212
334
root 0.252515 17.1508 -4.56809 -16.9972 -69.6798 6.39231
lowerback 38.9278 -3.99734 -4.00209
upperback 3.94185 -7.62238 -2.16014
thorax -14.5092 -3.36116 3.21406
lowerneck 1.62963 -12.5452 -5.12401
upperneck -17.8675 -16.0276 14.0606
head -3.97456 -8.71481 5.58382
rclavicle 2.36554e-014 -2.70347e-014
rhumerus 39.924 36.5159 56.3713
rradius 31.6591
rwrist -84.9172
rhand -27.3955 -7.50681
rfingers 7.12502
rthumb -0.8021 -37.485
lclavicle 2.36554e-014 -2.70347e-014
lhumerus 42.3657 -34.3662 59.566
lradius 112.783
lwrist 24.1312
lhand -9.1727 -16.0173
lfingers 7.12502
lthumb 16.7802 13.2776
rfemur -6.44035 -18.5208 18.1416
rtibia 39.483
rfoot -15.7309 -1.82606
rtoes -4.62912
lfemur 14.7525 -6.14209 -9.67394
ltibia 21.2637
lfoot -7.91534 21.8511
ltoes -31.8091
335
root 0.244721 17.1442 -4.57919 -17.0384 -69.591 6.41814
lowerback 38.9649 -3.99096 -4.02654
upperback 3.97073 -7.62248 -2.13686
thorax -14.4821 -3.36196 3.25189
lowerneck 1.80354 -12.6318 -5.02618
upperneck -18.0838 -16.1336 14.0949
head -4.06454 -8.78458 5.60724
rclavicle 3.85642e-014 1.59028e-015
rhumerus 40.27 36.5864 56.7567
rradius 31.671
rwrist -85.7263
rhand -29.1416 -8.24277
rfingers 7.12502
rthumb -2.48845 -38.208
lclavicle 3.85642e-014 1.59028e-015
lhumerus 42.3203 -34.3196 59.7265
lradius 112.735
lwrist 24.5955
lhand -9.25075 -15.815
lfingers 7.12502
lthumb 16.7051 13.4862
rfemur -6.4205 -18.3724 18.1779
rtibia 39.5461
rfoot -15.871 -1.96746
rtoes -4.60237
lfemur 14.7775 -6.22192 -9.67994
ltibia 21.2355
lfoot -7.94822 21.9416
ltoes -31.739
336
root 0.234195 17.1395 -4.5903 -17.1109 -69.4395 6.49474
lowerback 38.9694 -4.00467 -4.05663
upperback 3.9979 -7.65024 -2.12796
thorax -14.445 -3.37508 3.2873
lowerneck 1.98312 -12.7182 -4.93639
upperneck -18.2952 -16.2388 14.1354
head -4.15288 -8.85381 5.63416
rclavicle 3.24019e-014 2.22639e-014
rhumerus 40.5185 36.5893 56.9893
rradius 31.6729
rwrist -86.3662
rhand -30.4793 -8.83486
rfingers 7.12502
rthumb -3.78036 -38.7811
lclavicle 3.24019e-014 2.22639e-014
lhumerus 42.3105 -34.292 59.8656
lradius 112.62
lwrist 24.9015
lhand -9.29885 -15.5688
lfingers 7.12502
lthumb 16.6587 13.7363
rfemur -6.38311 -18.219 18.1768
rtibia 39.5891
rfoot -16.0639 -2.15675
rtoes -4.45892
lfemur 14.7602 -6.26885 -9.69028
ltibia 21.2193
lfoot -7.95154 21.9758
ltoes -31.6966
337
root 0.225472 17.134 -4.60102 -17.1501 -69.3179 6.50816
lowerback 39.0085 -4.01489 -4.08826
upperback 4.02815 -7.67233 -2.09372
thorax -14.4132 -3.38519 3.35024
lowerneck 2.14117 -12.7988 -4.87764
upperneck -18.4859 -16.3374 14.1827
head -4.22866 -8.91754 5.66454
rclavicle -8.54774e-015 8.74653e-015
rhumerus 40.9236 36.6639 57.4838
rradius 31.6758
rwrist -87.1102
rhand -31.4993 -9.25423
rfingers 7.12502
rthumb -4.7653 -39.1806
lclavicle -8.54774e-015 8.74653e-015
lhumerus 42.2503 -34.2136 60.0436
lradius 112.512
lwrist 25.1545
lhand -9.27489 -15.3326
lfingers 7.12502
lthumb 16.6818 13.9705
rfemur -6.32712 -18.082 18.1985
rtibia 39.6223
rfoot -16.2446 -2.3201
rtoes -4.28254
lfemur 14.7734 -6.34833 -9.69631
ltibia 21.2085
lfoot -7.97024 22.0774
ltoes -31.5199
